# xmcd
#
# Track frame offsets:
#	183
#	15310
#	27710
#	40170
#	50578
#	63785
#	78235
#	92998
#	109253
#	121993
#	134058
#	144550
#
# Disc length: 2091 seconds
#
# Revision: 1
# Processed by: cddbd v1.5.1PL0 Copyright (c) Steve Scherf et al.
# Submitted via: audiograbber 1.83.01
#
DISCID=a508290c
DTITLE=Tom Astor - Trucker Hits
DYEAR=1998
DGENRE=Country
TTITLE0=Halt Abstand Junge
TTITLE1=Junge zieh die Bremse an
TTITLE2=Truckstop Mama
TTITLE3=Tennesse Walz
TTITLE4=Truck Drivin Girl
TTITLE5=Devil
TTITLE6=Truckers Glück
TTITLE7=Wer die Oma nicht kennt, hat die Zeit ...
TTITLE8=Er ist ein Gottesmann für Trucker
TTITLE9=Yellow Rose Of Texas
TTITLE10=Highway Helden
TTITLE11=Trucker sind Partner
EXTD=
EXTT0=
EXTT1=
EXTT2=
EXTT3=
EXTT4=
EXTT5=
EXTT6=
EXTT7=
EXTT8=
EXTT9=
EXTT10=
EXTT11=
PLAYORDER=
